<svg xmlns="http://www.w3.org/2000/svg" viewBox="0 0 2224 1668"  fill-rule="evenodd" stroke-linecap="round" stroke-linejoin="round" stroke-miterlimit="1.5" xmlns:v="https://vecta.io/nano"><style><![CDATA[.B{stroke-width:24.6}]]></style><g transform="matrix(1.42289 0 0 1.42289 -572.379 -396.86)"><g transform="matrix(.702793 0 0 .702793 402.264 278.91)"><path d="M291.557 1004.092c-3.903-26.521-22.973-64.044-27.58-92.469-4.165-25.693-1.43-55.937-.061-78.085 1.138-18.442 5.354-36.565 8.27-54.811 3.128-19.563 5.068-44.013 10.49-62.572 5.001-17.127 12.46-33.727 22.036-48.782 9.77-15.36 23.163-30.051 36.584-43.382 13.939-13.843 33.215-29.337 47.045-39.679 11.302-8.452 30.666-34.206 35.941-22.375s-8.448 67.794-4.29 93.366c3.574 21.979 18.62 51.566 29.239 60.066 9.274 7.425 29.072-14.99 34.47-9.071s-.018 29.851-2.089 44.583c-2.921 20.794-11.729 54.342-15.441 80.186-3.563 24.808-4.616 55.917-6.83 74.878-1.522 13.052-.043 29.935-6.451 38.89s-21.635 9.289-31.998 14.844c-23.398 12.541-86.165 23.634-108.394 60.409-16.82 27.827-23.182 59.757-4.387 77.586 21.686 20.561 94.871 38.503 134.507 45.789 33.876 6.218 74.088 6.958 103.309-2.092 28.327-8.779 44.794-42.203 72.01-52.249s61.072-12.507 91.287-8.025c33.812 5.009 85.844 23.805 111.589 38.119 18.7 10.401 35.377 44.963 42.876 47.781 7.499 2.803-7.584-27.348 2.12-30.877 13.517-4.923 52.775 3.586 79.027 1.338 31.631-2.703 80.906-19.821 110.786-17.587 25 1.878 45.988 20.02 68.512 31.019 25.47 12.465 61.953 36.625 84.335 43.725 15.894 5.037 35.757 3.173 50.015-1.081 13.774-4.112 27.035-14.983 35.544-24.459 7.997-8.907 11.881-23.264 15.51-32.399a109.64 109.64 0 0 0 6.232-22.439c1.281-7.826.896-17.373 1.494-24.545.526-6.19-3.628-16.207 2.134-18.498 7.1-2.832 27.006.341 40.453 1.551 27.391 2.447 91.776 18.426 123.905 13.133 27.035-4.468 47.923-35.145 68.854-44.935 17.63-8.239 38.39-12.009 56.745-13.759 17.758-1.702 35.672 1.409 53.415 3.258 20.02 2.077 46.258 3.088 66.748 9.22 19.992 5.99 40.624 17.217 56.204 27.576 14.115 9.391 27.419 30.179 37.265 34.576 7.1 3.173 14.471-5.748 21.856-8.196 8.964-2.974 22.567-4.624 32.015-9.619 9.405-4.994 20.362-10.956 24.644-20.376s4.653-24.787 1.053-36.17c-3.6-11.375-13.019-23.216-22.652-32.089-10.401-9.582-26.153-17.484-39.727-25.399-14.343-8.352-34.363-18.24-46.258-24.716-8.438-4.592-25.897-5.739-25.114-14.132.797-8.394 22.453-25.542 29.838-36.227 5.962-8.611 11.611-18.951 14.471-27.874 2.618-8.192 1.935-17.095 2.675-25.665.882-10.272 1.124-25.596 2.618-35.969 1.281-8.917 5.023-17.361 6.36-26.271 1.651-11.056.27-31.577 3.586-40.059 2.376-6.073 9.832-11.7 16.292-10.828 8.523 1.15 22.667 13.731 34.847 17.729s26.082 1.918 38.247 6.259c13.902 4.963 33.153 16.578 45.191 23.519 9.405 5.42 19.408 10.423 27.049 18.125 7.712 7.769 12.109 19.525 19.237 28.492 8.637 10.85 24.275 22.543 32.584 36.61 9.505 16.111 20.675 39.536 24.502 60.062s1.423 42.287-1.537 63.084c-2.974 20.798-9.818 43.303-16.264 61.698-5.891 16.861-12.948 33.509-22.354 48.677-10.117 16.292-28.273 37.265-38.262 49.019-6.602 7.755-22.553 13.759-21.699 21.514.854 7.769 17.06 17.715 26.864 25.043 12.564 9.405 36.156 19.109 48.577 31.389 11.782 11.639 21.5 28.301 25.996 42.317 4.269 13.276 5.72 28.685.996 41.805-5.933 16.406-22.354 39.941-36.54 56.688-14.087 16.619-29.297 33.552-48.549 43.74-19.735 10.444-45.945 15.68-69.864 18.924-27.12 3.685-67.559 4.183-92.915 3.145-19.977-.811-41.349-12.237-59.221-9.391s-33.538 19.394-48.023 26.48c-12.593 6.175-25.399 12.223-38.888 16.064-14.058 4.013-30.322 5.336-45.476 8.011-16.15 2.86-35.188 7.114-51.466 9.135-15.296 1.907-31.147 1.921-46.173 3.045-14.67 1.096-29.269 3.5-43.967 3.685-15.495.199-32.783-.398-49.004-2.519-17.217-2.248-37.024-7.186-54.326-10.985-16.562-3.643-35.985-7.84-49.474-11.838-10.8-3.187-20.788-8.708-31.517-12.095-12.465-3.927-31.816-7.94-43.242-11.468-8.637-2.661-16.875-6.46-25.327-9.676-10.444-3.998-26.252-9.263-37.365-14.272-10.131-4.567-18.27-16.506-29.354-15.823-11.07.683-25.712 12.536-37.109 19.878-11.084 7.143-20.248 16.989-31.261 24.203-12.877 8.438-32.342 19.465-45.974 26.395-11.568 5.877-24.104 9.661-35.843 15.182-12.906 6.076-30.222 17.046-41.634 21.258-8.48 3.13-17.914 2.405-26.807 4.013-16.52 2.988-49.73 11.525-72.34 13.916-20.973 2.22-42.25 2.006-63.286.413-28.974-2.191-79.131-5.421-110.564-13.574-27.642-7.186-52.377-22.837-78.028-35.387-27.694-13.56-66.375-34.519-88.135-45.959-14.193-7.456-26.386-22.496-42.421-22.681-35.46-.398-127.454 22.012-170.344 20.262-30.739-1.266-67.091-18.996-86.995-30.834-14.802-8.808-21.905-26.594-32.438-40.211-10.589-13.702-25.656-25.427-31.092-41.975-5.497-16.719-3.229-41.406-1.892-58.395 1.167-14.827 3.318-30.749 9.908-43.526 6.591-12.763 17.741-24.275 29.632-33.096 14.578-10.814 38.861-26.067 57.835-31.816 17.889-5.421 46.57.398 56.008-2.661 4.986-1.608 2.58-10.857.616-15.709-2.84-7.029-11.467-17.843-17.655-26.437-6.394-8.893-18.738-15.766-20.71-26.921-2.759-15.595 7.4-44.636 4.158-66.66zm263.83-530.808c.6-13.58 1.803-40.742 4.603-59.737 2.703-18.33 5.649-36.9 12.203-54.231 6.964-18.418 18.663-38.115 29.582-56.278 11.258-18.731 23.878-38.461 37.97-56.105 14.225-17.807 30.761-36.325 47.377-50.745 15.952-13.846 34.273-26.776 52.31-35.771 17.537-8.748 37.295-13.206 55.904-18.207 18.344-4.93 37.021-8.638 55.746-11.801 20.532-3.468 47.311-10.407 67.417-9.001 18.626 1.303 36.084 10.036 53.23 17.438 25.626 11.062 72.838 33.044 100.484 48.932 23.179 13.317 51.238 33.014 65.382 46.398 9.462 8.957 28.899 24.936 19.451 33.905-11.525 10.933-64.002 19.411-88.575 31.693-21.557 10.776-50.982 30.063-58.837 41.999-5.834 8.865 13.389 19.145 11.682 29.62-1.75 10.71-13.176 24.321-22.211 34.643-10.529 12.032-28.557 25.218-40.979 37.551-11.71 11.634-20.248 28.313-33.523 36.449s-31.389 18.361-46.144 12.365c-31.904-12.965-77.974-27.135-165.841 3.85-41.029 14.469-86.469 40.534-109.188 53.568m675.115-258.697c4.667-10.485 62.251-11.787 85.018-14.26 17.089-1.857 34.391-1.147 51.58-.575 17.203.571 34.676.886 51.566 4.003 16.875 3.118 33.623 9.136 49.716 14.698 15.908 5.492 31.56 12.948 46.884 18.675 14.883 5.565 31.602 7.889 45.006 15.686s23.677 20.659 35.43 31.097c13.19 11.723 30.236 25.046 43.725 39.242 15.097 15.882 34.633 35.75 46.842 56.052 12.18 20.243 21.201 49.091 26.437 65.759 3.458 11.007 13.076 31.942 5.009 34.25s-36.042-16.763-53.415-20.401c-16.619-3.476-34.861 4.122-50.897-1.426-17.601-6.089-35.117-25.848-54.696-35.101-26.836-12.674-73.122-33.337-106.304-40.942-30.165-6.917-71.756-1.531-92.716-4.69-11.853-1.786-26.58-4.145-33.025-14.259-12.023-18.905-23.122-74.527-39.158-99.161-13.617-20.938-61.668-38.163-57.001-48.647z" fill="#feffff"/><path d="M761.638 156.315c-75.048 144.72-82.306 253.171-25.021 327.091L612.3 541.378l-25.564-17.676-38.353-36.536-1.191-55.67 24.231-74.718 30.153-69.73 67.017-73.712 61.322-44.29 31.723-12.731zM432.853 560.201l-47.957 24.263-51.023 57.017-40.329 61.064-23.541 53.195-6.831 65.553 6.219 69.662 12.756 71.178 18.883 54.637 26.035-20.624 38.108-29.472 34.151-4.203 40.765-9.474 24.121-4.476-4.8-65.164 11.046-96.497 7.284-60.255-10.41-16.221-38.636-15.608-9.234-37.164 2.134-57.19 11.259-40.221zm107.791 601.819c-53.646 327.21 402.182 406.26 602.106 160.14 114.24 130.96 586.56 192.35 683.2-49.27 68.03 84.13 225.23 36.43 226.57-40.8l19.84 68.19-22.51 42.63-38.68 39.31-37.28 22.9-49.37 12.58-40.99 9.64-42.57 1.83-34.1-9.5-29.67-6.88-53.36 23.21-57.49 20.57-120.94 26.69-107.69-5.93-126.74-21.9-107.1-42.95-40.3-17.58-24.36 15.74-40.43 31.91c-88.31 46.43-187.158 72.88-297.052 78.37l-43.99-8.67-63.737-16.28-52.203-21.54-49.123-27.74-67.276-37.3-39.1-10.52-66.484 13.6-101.618 6.7-97.951-51.85-46.568-52.72 2.481-61.15 24.524-66.01 62.657-42.74 85.736-19.85 96.869 19.91 61.983.64 32.716 16.62zm831.726-732.852c-5.55-88.852 94.79-120.651 148.4-137.453l-214.53-14.986-20.42 27.73 86.55 124.709zM867.804 1179.55l70.339 127.71c136.317-56.56 277.327-53.84 421.077-16.47l83.01-153.62 21.94-47.33-29.27-14.74-51.22 4.38-44.21-18.63-46.94 3.02 18.91 60.48-14.5 38.78-26.86 27.71-38.61 1.11-44.04-4.09-44.57-13.48-45.75-34.78-31.6-23.38-48.12-3.04-115.594 18.31-42.275 16.53 8.283 31.53z" fill="#a2cff4"/></g><path d="M726.492 942.601c6.863-19.725 2.37-81.93 4.549-109.034 1.45-18.03 26.56-52.174 8.527-53.592-52.957-4.164-57.223-141.811 33.976-153.945 12.406-1.65 43.856 45.984 53.822 38.314 4.353-3.35 8.886-6.441 13.599-9.209 17.631-10.354 42.139-22.106 65.164-26.63 29.096-5.717 84.135-6.927 109.411-7.671 14.12-.415 31.45 9.213 42.25 3.207 10.79-6.005 13.03-27.511 22.5-39.239 10.57-13.08 35.63-29.987 40.91-39.24 3.1-5.415-9.92-10.082-9.21-16.278.83-7.329 6.16-21.163 14.23-27.695 9.47-7.675 27.56-14.862 42.64-18.356 17.65-4.092 42.29-7.984 63.28-6.196 20.98 1.788 44.51 5.097 62.61 16.923 20.79 13.587 48.63 43.407 62.14 64.595 11.71 18.362 13.59 56.447 18.91 62.533 5.31 6.086 4.69-21.921 12.99-26.014 8.29-4.093 24.66-.561 36.75 1.457 18.27 3.046 49.8 7.28 72.81 16.818 23.7 9.821 49.57 35.232 69.36 42.109 15.55 5.403 33.91-6.496 49.37-.848 18.97 6.931 47.31 27.239 64.45 42.431 15.47 13.714 32.85 31.428 38.4 48.718s-.36 47.602-5.1 55.018c-4.6 7.192-18.79-16.321-23.35-10.521s.05 30.704-4 45.319c-5.84 21.073-26.43 63.445-31.03 81.121-2.12 8.12-2.94 19.462 3.42 24.938 11.18 9.632 49.55 19.34 63.67 32.852 12.67 12.126 24.06 36.424 21.03 48.224s-24.37 25.22-39.23 22.6c-28.14-4.97-96.16-45.835-129.61-52.423-23.63-4.654-48.12 5.694-71.1 12.893-24.7 7.74-49.92 29.94-77.13 33.53-27.2 3.59-68.56-11.58-86.08-11.99-7.09-.16-17.28 2.67-19.01 9.54-2.45 9.75 11.22 34.97 4.32 48.96-6.89 13.98-27.24 29.72-45.69 34.95-37.97 10.78-100.31-44.79-127.37-53.57-11.1-3.59-23.35.2-35 .95-22.19 1.44-78.52 3.32-98.17 7.66-8.78 1.94-11.39 21.69-19.75 18.36-9.474-3.77-22.361-31.49-37.113-41-14.752-9.52-33.46-15.32-51.395-16.1-22.9-.99-66.594 4.13-86.005 10.14-12.737 3.94-20.816 19.44-30.461 25.93-8.388 5.64-17.329 12.2-27.406 12.97-14.989 1.15-42.599-3.07-62.524-6.06-19.199-2.87-41.379-4.7-57.026-11.83-14.598-6.65-30.488-20.59-36.856-30.95-5.455-8.88-5.762-21.8-1.349-31.24 5.135-10.981 19.142-25.775 32.159-34.664 13.208-9.018 33.133-14.651 47.086-19.445 11.916-4.094 32.491 2.58 36.632-9.32z" fill="#a7a2aa"/><path d="M1608.09 703.672c39.94-5.904 79.45 37.123 97.92 81.39l15.37 9.249-1.2-9.521-2.42-24.58-5.05-21.844-22.49-30.924-29.15-24.194-53.64-27.561-29.76 1.605 6.73 24.797 23.69 21.583zm-201.03-100.248c131.63 52.9 230.82 200.625 128.68 294.143 33.96 36.242-5.05 108.703-55.35 112.493l42.44-8.61 31.85-3.003 18.35-5.259 11.86-17.449 4.78-19.511.78-18.206 6.13-19.415 9.07-17.97 9.19-16.132 5.86-26.321 2.04-24.98 3.23-26.881-2.14-27.871-22.39-66.874-40.13-58.324-26.27-22.261-29.46-14.123-57.22-19.315-41.3 5.869zm-272.4-58.144c74.62-49.919 163.92-69.517 238 52.404l-21.72-56.188-24.06-26.877-27.47-24.935-32.53-10.636-47.27-2.502-33.12 2.397-56.19 25.133-25.59 18.557 29.95 22.647zM724.364 877.012c45.895-133.366 126.555-219.396 251.93-222.256l-25.963-33.932-51.078 5.505-80.319 46.534-49.091 61.109-37.629 88.561-7.85 54.479zm430.466-35.407c-9.24-1.936-12.79 50.624-.44 83.713 30.48 81.682 142.5 91.122 157.05 173.832l17.54-38.81-7.84-31.58-28.71-33.794-31.12-21.017-26.94-19.887-22.53-19.831-25.44-19.351-18.7-31.57-12.87-41.705z" fill="#dbc9e4"/><g fill="#7b7184"><path d="M1573.8 994.812c.73-8.44 17.4-31.524 25.81-39.585 6.31-6.04 16.7-5.403 24.68-8.784 7.95-3.368 14.59-12.203 23.2-11.503 8.96.729 20.78 9.901 30.59 15.877 11.45 6.97 28.83 18.766 38.08 25.944 6.43 4.989 13.35 10.204 17.4 17.12 4.04 6.919 7.14 17.229 6.84 24.379-.27 6.81-3 14.64-8.59 18.53-6.44 4.49-20.58 7.22-30.02 8.36-8.82 1.07-18.38 1.02-26.62-1.52-8.24-2.53-15.28-9.07-22.82-13.7-7.52-4.61-14.28-10.64-22.41-14.07-9.52-4.01-25.34-6.48-34.7-9.99-7.53-2.82-22.13-3.05-21.44-11.058zm-397.78-97.951c32.69 3.824 121.05 58.372 190.9 19.798 35.33 3.632 84.56 48.206 87.33 61.056 3.86 17.907 26.66 34.795 21.37 44.935-5.28 10.15-38.81 13.33-53.07 15.94-10.66 1.96-21.74 1.03-32.51-.24-12.55-1.48-31.09-6.15-42.84-8.64-9.24-1.96-19.28-1.99-27.64-6.29-8.36-4.31-14.7-13.39-22.5-19.55-8.94-7.046-20.64-15.331-31.14-22.746l-33.6-22.971c-9.34-6.731-19.66-12.502-27.45-20.984-9.39-10.215-44.61-45.268-28.85-40.308zm45.5-176.211c40.06-39.693 50.88-50.79 91.69-86.138 2.4-37.89-49.12-145.136-148.96-53.866-7.85 7.171-48.88 41.172-44.89 88.343 3.24 38.222 38.36 67.943 102.16 51.661zM608.894 1025.6c330.655-8.73 416.376-25.29 446.006-95.783.14 15.028 5.62 34.89 18.82 43.214 2.98 11.418 11.42 17.558 15.95 24.689 8.9 14.02 22.69 28.28 30.84 39.12 6.33 8.42 20.48 20.32 18.1 25.91-2.39 5.58-21.43 6.02-32.41 7.61-20.18 2.9-67.46 10.21-88.66 9.84-13.45-.24-26.456-6.11-38.506-12.09-12.128-6.03-21.608-19.2-34.26-24.06-12.652-4.87-27.692-4.23-41.651-5.13-15.095-.98-34.321-3.17-48.918-.72-13.678 2.29-28.347 9.46-38.659 15.38-8.883 5.1-16.406 15.06-23.212 20.14-5.456 4.07-10.881 9.37-17.621 10.32-11.225 1.6-34.203-.04-49.727-.75-14.505-.66-30.416 2.95-43.419-3.51-19.349-9.62-102.807-51.96-72.673-54.18z"/><path d="M930.501 617.587c-.874 149.741 167.479 175.293 200.829 162.903-8.97-4.131-43.58-21.376-52.85-33.847-14.12-18.983-20.14-49.444-25.75-63.528-6.94-17.449.89-43.239 4.81-56.134m539.6 78.105c7.08 20.94 18.84 45.29 23.42 70.898 4.18 23.355 4.24 47.638 1.19 71.168-3.16 24.468-10.46 54.942-20.18 75.639 91.65-37.567 62.35-195.121 3.09-217.28-21.01-7.857-8.62-3.69-7.52-.425zm-863.668-53.711c-8.043 43.857-5.601 79.18 16.993 98.101l-13.966 29.306-25.929-8.284-13.578-34.722 4.855-47.259 31.625-37.142z"/></g><g stroke="#1d1548" class="B"><path d="M1499.08 871.237c28.63 24.838 55.93 28.207 82.21 15.23" fill="none"/><path d="M1461.07 812.505c-15.77-9.426-40.18 1.628-48.28 16.882-30.16 56.778-38.63 93.196-32.46 116.166 5.73 21.33 27.41 26.161 40.58 31.287 23.71 9.224 45.92-8.619 59.9-37.704 23.17-48.172 15.31-105.677-19.74-126.631z" fill="#1d1548"/></g><g fill="none" class="B"><path d="M1466.09 836.299c15.64 23.629 15.96 56.689 9.31 75.108" stroke="#312c75"/><g stroke="#1d1548"><path d="M1313.34 1020.19c38.73 12.46 94.82 25.33 133.51 14.64m193.7-99.282c173.47 58.172 92.91 137.092 22.85 101.742"/><path d="M1416.08 1073.04c67.54-101.91 210.67-95.069 277.2-4.89m-393.84-301.451c19.66 33.187 49.33 47.94 91.32 40.046M997.063 1080.62l153.307-14.85"/><path d="M1053.59 932.502c48.62 133.678 229.66 250.968 268.96 152.748 40.42-101-152.5-109.682-163.49-234.984M766.09 1117.63c42.173-111 199.737-107.01 246.28-7.93M771.547 957.755c-158.466-52.601-279.599 149.625 11.991 123.025m-30.162 182.09c-276.273 74.28-306.663-193.74-103.505-188.94m568.829 185.09c-161.31 124.39-311.847 110.49-465.793 3.22m935.363-46.39c-52.64 133.04-358.01 135.91-484.9 23.77m574.86-140.31c192.6 80.39-11.7 225.69-128.43 172.84m67.47-478.131c217.48 60.145 134.67 295.451 30.62 314.661M1589 924.177c6.59 27.441-7.1 61.42-29.28 73.703m31.52-76.529c27.5-26.881 41.3-114.302 28.11-144.384"/><path d="M1559.04 655.163c63.69-23.68 191.49 64.624 158.08 146.74-3.01 7.391-33.16-27.411-32.17-15.545 12.53 149.273-67.29 157.953-97.75 172.917m57.97-294.285c-23.81-112.634-151.32-233.933-361.56-181.897"/><path d="M1602.47 712.906c-58.5-114.318-168.2-115.922-223.05-116.724m-176.75 171.087c-19.17 5.332-38.87 8.273-58.8 6.824-8.07-.587-16.12-2.058-23.88-4.358-51.09-15.147-72.78-68.672-66.08-118.186 6.47-47.705 36.58-90.55 80.08-111.589m0 0c-10.12-3.169-30.35-9.505-25.96-19.37 18.27-41.083 238.1-117.049 267.71 103.395m-325.46-.898C768.417 571.625 709.938 820.32 726.708 946.541m67.011-320.89c-34.6-166.811 220.141-397.59 422.921-160.146"/></g></g><g fill="#1d1548"><path d="M718.158 651.864l2.578.969 2.297 1.518 1.902 1.992 1.411 2.365.85 2.62.245 2.743-.371 2.729-.969 2.578-1.519 2.297-1.991 1.902-2.365 1.412-.279.126-.337.152-.377.171-.426.194-.483.222-.254.117-.852.398-.309.146-.323.154-.336.161-.348.167-.361.175-.373.182-.386.189-.398.197-.409.203-.855.43-.446.226-.456.234-.468.24-.479.249-.49.256-.501.264-.512.271-.522.279-.533.287-.817.445-.278.152-.28.154-.283.156-.286.158-.577.322-.292.164-.295.165-.297.168-.299.17-.606.345-.306.176-.309.178-.311.18-.312.181-.633.37-.641.378-.323.191-.326.194-.328.196-.33.198-.665.402-.336.204-.338.206-.34.208-.341.21-.344.212-.345.214-.697.435-.704.443-.354.224-.357.227-.358.229-.36.231-.725.468-.365.237-.366.239-.368.241-.742.489-.373.248-.75.502-.378.254-.379.256-.762.518-.384.263-.385.265-.385.266-.388.269-.779.545-.391.275-.393.278-.394.28-.396.282-.794.57-.399.288-.4.291-.401.293-.402.295-.404.297-.404.299-.406.302-.407.304-.816.614-.41.311-.41.312-.412.315-.412.317-.414.319-.414.322-.415.323-1.251.985-.418.333-.419.335-.42.337-.842.681-.422.344-.423.347-.423.348-.424.351-.425.353-.425.355-.426.358-.426.359-.855.727-.427.367-.428.369-.429.371-.43.374-.43.376-.86.758-.431.384-.431.385-.431.387-.864.782-.432.395-.865.796-.433.401-.433.404-.433.406-.433.409-.434.411-.433.413-.434.416-.434.418-.433.42-.434.423-.434.425-.434.427-.433.43-.868.867-.433.437-.867.882-.433.444-.433.446-.433.45-.432.451-.432.454-.432.456-.432.459-.431.461-.432.463-.43.466-.431.469-.43.471-.43.473-.429.476-.429.478-.429.48-.642.726-.213.243-.214.244-.213.244-.214.245-.639.739-.213.247-.637.746-.424.5-.212.251-.212.252-.212.253-.422.506-.211.254-.211.255-.422.512-.21.256-.21.258-.211.258-.419.517-.419.521-.209.261-.209.262-.626.789-.207.264-.209.265-.208.266-.207.266-.621.802-.207.269-.206.269-.413.541-.205.271-.206.272-.205.272-.205.274-.205.273-.204.275-.205.275-.204.275-.408.554-.203.277-.203.278-.608.839-.202.281-.202.282-.402.564-.402.568-.201.285-.2.285-.399.573-.199.287-.398.576-.198.29-.198.289-.396.582-.394.585-.197.293-.196.293-.392.59-.585.889-.194.298-.194.299-.194.298-.579.901-.193.302-.192.303-.191.302-.192.304-.382.61-.19.305-.19.306-.19.308-.189.307-.189.308-.376.619-.376.621-.187.312-.373.625-.185.314-.186.314-.186.316-.184.315-.185.316-.184.317-.549.955-.183.32-.182.32-.362.643-.362.646-.18.323-.537.976-.178.326-.178.328-.178.327-.177.329-.176.329-.352.66-.35.664-.174.332-.175.334-.346.668-.173.336-.172.336-.343.674-.171.339-.17.338-.339.68-.169.341-.504 1.027-.167.344-.332.689-.166.346-.165.346-.492 1.044-.163.35-.162.35-.163.35-.161.351-.322.706-.16.353-.159.354-.159.355-.474 1.07-.157.357-.312.718-.31.72-.308.724-.153.362-.153.364-.152.364-.302.731-.15.366-.15.367-.15.368-.148.369-.149.369-.294.741-.146.371-.146.372-.146.373-.432 1.123-.143.376-.142.376-.142.378-.141.377-.141.379-.14.38-.278.761-.138.381-.138.383-.137.383-.272.768-.27.771-.134.387-.266.776-.132.389-.262.78-.26.784-.129.392-.256.788-.253.791-.125.396-.125.397-.125.398-.123.399-.124.4-.122.4-.122.401-.121.401-.24.806-.119.404-.236.81-.117.406-.232.815-.114.409-.115.409-.113.41-.225.823-.112.412-.11.414-.111.414-.109.414-.324 1.249-.106.417-.106.419-.105.419-.104.42-.104.421-.102.422-.103.422-.202.848-.1.424-.099.426-.196.853-.097.428-.096.428-.19.861-.094.43-.093.432-.184.866-.091.434-.09.435-.178.872-.088.438-.087.438-.086.439-.17.88-.084.441-.083.442-.082.443-.162.888-.08.446-.079.446-.078.447-.154.896-.076.449-.075.45-.074.451-.146.904-.142.908-.07.455-.138.912-.134.916-.195 1.379-.063.462-.124.925-.179 1.394-.058.467-.114.935-.055.469-.055.47-.106.941-.052.472-.051.473-.1.949-.048.475-.094.954-.046.478-.131 1.439-.042.481-.041.482-.08.967-.038.485-.074.972-.035.487-.035.488-.034.489-.064.98-.031.491-.03.493-.029.493-.028.494-.027.495-.026.495-.025.497-.024.497-.023.498-.044.999-.02.501-.019.502-.036 1.006-.016.504-.03 1.011-.026 1.014-.011.509-.02 1.02-.008.511-.014 1.025-.005.513-.008 1.03-.002.516-.001.518v1.037l.002.52.003.52.004.522.005.522.006.524.007.524.008.525.009.526.01.527.011.527.026 1.059.03 1.061.034 1.065.019.534.02.535.042 1.072.073 1.615.026.54.056 1.083.06 1.086.032.545.067 1.092.035.547.036.548.076 1.099.04.551.041.552.042.552.043.554.044.554.045.555.046.556.048.558.049.558.05.559.051.56.052.561.053.561.11 1.126.057.564.058.566.059.566.122 1.135.063.569.064.57.131 1.143.067.572.069.574.141 1.149.072.577.073.577.075.578.153 1.159.078.581.16 1.164.082.584.253 1.757.087.587.088.588.18 1.18.185 1.183.094.593.096.594.097.594.098.596.099.597.203 1.196.103.599.104.6.106.602.107.602.108.603.109.605.223 1.211.228 1.215.116.608.236 1.221.12.611.121.613.246 1.228.252 1.232.257 1.236.13.619.132.62.133.621.134.622.136.623.137.624.278 1.251.141.627.143.627.144.629.145.63.146.631.297 1.264.151.633.152.635.153.635.155.637.156.637.317 1.278.16.64.161.641.163.642.165.643.166.644.335 1.291.17.647.345 1.297.174.65.176.651.355 1.304.18.654.364 1.31.185.657.185.658.187.658.189.66.381 1.322.387 1.325.196.665.197.665.199.667.2.667.405 1.338.204.67.206.671.208.672.209.673.21.675.212.675.429 1.353.216.678.437 1.359.221.682.223.681.223.683.226.684.227.685.228.686.23.687.232.688.233.689.234.69.236.691.238.692.239.693.24.694.486 1.39.492 1.395.498 1.398.252.701.253.702.255.703.256.704.257.704.523 1.422.659 2.674.046 2.753-.567 2.694-1.153 2.5-1.68 2.19-2.124 1.75-2.461 1.24-2.674.65-2.754.05-2.695-.57-2.501-1.15-2.182-1.68-1.753-2.13-1.237-2.45-1.082-2.957-.267-.738-.529-1.472-.263-.735-.261-.734-.517-1.465-.256-.732-.254-.73-.505-1.458-.25-.728-.248-.727-.247-.726-.245-.725-.486-1.447-.24-.722-.476-1.442-.236-.72-.235-.719-.233-.717-.461-1.433-.228-.715-.452-1.428-.445-1.424-.221-.71-.219-.71-.217-.709-.216-.708-.215-.707-.213-.706-.212-.705-.21-.704-.415-1.406-.206-.702-.204-.701-.202-.7-.201-.699-.2-.698-.198-.697-.392-1.392-.193-.695-.192-.693-.191-.693-.377-1.383-.371-1.379-.546-2.062-.179-.686-.177-.685-.176-.684-.175-.683-.345-1.363-.339-1.361-.333-1.356-.165-.677-.325-1.351-.16-.675-.159-.673-.158-.672-.156-.672-.307-1.341-.303-1.337-.149-.667-.147-.667-.146-.665-.289-1.329-.142-.663-.28-1.323-.409-1.978-.134-.658-.132-.657-.131-.656-.258-1.309-.376-1.958-.123-.651-.121-.649-.239-1.298-.117-.647-.231-1.292-.225-1.289-.111-.643-.109-.642-.108-.641-.107-.641-.105-.639-.104-.639-.103-.638-.101-.637-.1-.636-.196-1.27-.191-1.266-.093-.632-.092-.631-.091-.63-.178-1.258-.087-.627-.17-1.253-.083-.625-.162-1.248-.079-.622-.078-.621-.152-1.241-.074-.619-.073-.619-.141-1.233-.07-.616-.134-1.229-.129-1.225-.063-.611-.121-1.221-.117-1.217-.057-.607-.055-.606-.054-.606-.053-.604-.102-1.207-.049-.602-.094-1.202-.046-.599-.044-.599-.043-.598-.042-.597-.08-1.191-.038-.595-.037-.594-.07-1.185-.066-1.181-.031-.59-.058-1.176-.054-1.173-.025-.585-.024-.585-.044-1.166-.04-1.163-.018-.58-.047-1.736-.013-.577-.024-1.151-.01-.575-.016-1.146-.007-.572-.005-.571-.004-.57-.003-.569-.002-.569-.001-.568v-.567l.001-.565.007-1.13.004-.564.006-.562.007-.562.008-.561.009-.561.034-1.675.014-.557.03-1.112.017-.554.018-.553.039-1.105.044-1.102.023-.549.05-1.096.027-.548.027-.546.029-.545.06-1.088.032-.543.033-.542.034-.541.035-.54.036-.54.037-.539.038-.537.04-.538.04-.536.041-.535.042-.535.133-1.598.094-1.062.048-.53.05-.529.05-.528.157-1.579.11-1.048.114-1.045.118-1.042.06-.52.124-1.037.063-.518.196-1.547.067-.513.138-1.026.07-.512.143-1.02.073-.509.074-.509.075-.507.152-1.013.078-.505.158-1.007.162-1.005.25-1.5.085-.499.086-.497.087-.497.088-.496.089-.495.18-.988.184-.985.093-.491.286-1.469.096-.487.098-.488.198-.971.202-.969.102-.483.103-.482.104-.482.21-.96.106-.478.216-.956.109-.477.22-.95.224-.948.113-.472.114-.472.115-.471.116-.47.234-.937.118-.468.119-.467.24-.931.244-.928.123-.463.248-.923.252-.919.127-.459.256-.915.13-.457.13-.455.131-.455.264-.907.133-.452.134-.451.135-.451.272-.9.137-.448.276-.894.14-.446.14-.445.282-.887.142-.443.143-.442.144-.441.29-.88.292-.876.296-.874.149-.435.149-.434.15-.434.151-.433.152-.433.152-.431.153-.43.308-.859.155-.429.156-.427.314-.853.158-.425.158-.424.159-.424.16-.422.322-.843.324-.84.163-.419.164-.418.33-.833.166-.416.166-.414.167-.414.336-.826.169-.412.169-.41.342-.82.171-.408.172-.407.173-.407.173-.406.174-.406.174-.404.176-.404.175-.403.354-.803.177-.4.178-.4.358-.797.18-.398.18-.396.181-.396.182-.396.182-.394.366-.786.184-.392.185-.391.37-.78.186-.388.374-.776.376-.772.378-.769.38-.765.191-.382.192-.381.192-.38.192-.379.193-.379.194-.378.194-.377.195-.377.39-.75.196-.374.197-.373.394-.744.198-.371.597-1.108.2-.368.201-.367.402-.732.404-.728.203-.364.203-.362.613-1.083.205-.359.205-.358.206-.358.206-.357.207-.357.208-.355.207-.355.208-.354.208-.353.419-.704.21-.351.21-.35.421-.698.212-.348.424-.694.213-.346.64-1.032.214-.342.215-.342.43-.682.648-1.016.434-.674.436-.671.218-.334.218-.333.219-.333.44-.664.219-.33.221-.33.442-.657.221-.328.222-.326.221-.326.223-.326.222-.324.223-.324.895-1.288.225-.32.45-.638.225-.318.452-.634.227-.315.226-.315.227-.314.454-.626.456-.624.228-.31.229-.309.229-.31.458-.615.459-.613.23-.306.231-.305.23-.303.462-.606.694-.903.464-.598.698-.892.7-.885.467-.587.235-.292.234-.292.469-.581.705-.866.236-.287.235-.287.708-.855.236-.283.473-.565.237-.282.237-.281.237-.28.237-.279.238-.279.475-.555.714-.828.238-.274.238-.273.477-.545.481-.547.475-.536.958-1.07.479-.532.48-.528.48-.526.48-.522.481-.52.481-.518.482-.514.481-.512.482-.508.482-.507.483-.503.482-.501.483-.498.482-.495.483-.492.483-.49.483-.487.483-.484.483-.481.483-.479.483-.476.483-.474.483-.47.483-.468.483-.466.482-.462.483-.46.482-.457.482-.455.482-.452.482-.449.481-.447.962-.885.481-.439.96-.869.48-.431.479-.428.478-.425.957-.844.953-.832.477-.413.476-.41.475-.407.475-.405.947-.802.473-.397.472-.394.471-.392.941-.776.469-.384.469-.382.467-.38.467-.376.931-.746.928-.736.462-.364.462-.362.461-.359.459-.357.459-.354.458-.352.456-.349.456-.347.907-.686 1.353-1.011.449-.332.448-.33.446-.327.445-.325.886-.642.442-.318.878-.628.437-.31.87-.614.433-.303.432-.301.43-.298.429-.296.427-.294.849-.581.422-.286.421-.285.419-.282.834-.557.826-.548.82-.538.408-.266.405-.263.806-.521.4-.256.398-.255.791-.501.393-.248.39-.245.775-.484.385-.239.764-.47.378-.232.377-.229.374-.228.372-.225.738-.444 1.091-.649.359-.212.711-.417.703-.409.347-.201 1.028-.59.338-.192.335-.19.664-.374.328-.184.649-.362.32-.177.318-.175.315-.174.312-.171.314-.171.608-.33.601-.323.589-.315.579-.307.567-.299.555-.29.544-.282.532-.274.52-.266.507-.258.495-.249.483-.242.47-.234.456-.225.444-.218.847-.411.403-.194.388-.186.736-.349.346-.162.33-.154.316-.147.305-.141.545-.251.897-.407.33-.149.262-.119 2.62-.849 2.743-.246 2.729.372z"/><path d="M769.982 608.001l.319.004.319.006.319.007.318.01.32.012.32.014.32.017.32.018.319.02.322.023.32.025.321.027.321.029.32.031.321.033.321.036.321.037.321.04.321.042.321.044.322.046.322.049.32.051.321.052.321.055.322.057.321.06.322.061.321.064.32.066.321.068.321.07.32.072.32.075.321.076.321.079.32.082.32.083.319.085.32.088.321.09.319.092.318.094.319.096.319.098.319.101.318.103.319.105.317.107.317.109.318.111.317.114.317.116.316.118.316.12.316.122.316.124.315.127.315.128.315.131.314.133.314.135.313.137.314.139.313.141.312.144.313.145.312.148.311.15.311.152.311.154.31.156.311.158.309.16.309.163.309.164.617.335.307.171.307.173.308.175.306.177.306.179.305.181.305.183.305.185.305.188.303.189.303.191.304.194.303.196.302.197.301.199.302.202.301.204.3.205.301.208.299.21.299.212.299.214.298.216.298.217.298.221.297.221.296.224.297.227.295.228.295.23.295.232.295.234.294.236.294.239.292.239.293.243.293.244.292.247.291.248.291.25.29.252.291.255.29.256.289.259.289.26.577.527.287.267.287.268.287.271.287.272.286.275.286.277.285.278.284.281.285.283.284.285.284.286.283.289.283.291.282.293.282.295.282.297.281.299.281.301.281.303.28.305.279.307.28.31.279.311.279.314.278.315.278.318.277.319.277.322.277.324.276.325.276.328.276.33.275.332.275.334.275.336.274.339.274.34.274.342.273.345.273.346.545.7.272.353.271.355.271.357.271.359.27.362.27.363.27.366.269.367.27.37.268.372.269.375.268.376.268.378.267.381.267.383.267.385.266.386.267.39.266.392.265.393.265.396.265.398.265.4.264.402.264.405.264.406.263.409.263.411.263.413.262.416.262.418.262.42.262.422.261.424.261.427.261.429.26.431.26.433.519.874.259.44.259.442.258.445.259.447.507.886.408.778.351.804.293.828.233.847.172.861.11.871.048.876-.015.878-.078.875-.139.866-.201.855-.262.838-.321.817-.378.793-.434.763-.487.73-.538.694-.586.654-.631.61-.673.564-.712.514-.746.462-.778.408-.805.351-.827.293-.847.233-.861.172-.871.11-.876.048-.878-.015-.875-.078-.866-.139-.855-.201-.838-.262-.817-.321-.793-.378-.763-.434-.73-.487-.694-.538-.654-.586-.61-.631-.564-.673-.514-.712-.462-.746-.233-.409-.225-.392-.225-.39-.45-.771-.225-.382-.449-.756-.225-.374-.225-.373-.224-.369-.224-.366-.225-.365-.224-.362-.224-.36-.224-.357-.224-.354-.224-.352-.224-.35-.223-.347-.224-.345-.223-.342-.223-.34-.223-.337-.223-.335-.223-.333-.223-.33-.222-.327-.223-.325-.222-.323-.222-.321-.222-.318-.443-.628-.443-.62-.221-.306-.221-.303-.221-.302-.22-.298-.221-.297-.22-.294-.219-.292-.22-.289-.22-.288-.219-.284-.219-.282-.219-.281-.437-.553-.218-.273-.218-.271-.435-.534-.217-.264-.434-.521-.216-.257-.217-.255-.431-.503-.216-.248-.214-.245-.215-.244-.215-.241-.214-.239-.427-.471-.213-.232-.213-.23-.213-.228-.212-.226-.212-.223-.423-.441-.421-.431-.211-.213-.209-.21-.21-.208-.209-.206-.209-.205-.208-.201-.208-.2-.415-.393-.207-.193-.207-.192-.205-.189-.206-.187-.205-.185-.206-.183-.204-.181-.204-.179-.204-.177-.203-.174-.203-.173-.202-.171-.201-.168-.202-.167-.201-.165-.201-.163-.2-.16-.2-.159-.199-.157-.199-.155-.198-.153-.198-.151-.197-.149-.393-.293-.196-.143-.391-.281-.194-.138-.195-.136-.193-.134-.193-.132-.193-.13-.191-.128-.192-.127-.192-.126-.19-.122-.19-.121-.19-.12-.189-.118-.188-.116-.188-.114-.188-.113-.187-.111-.187-.109-.186-.108-.185-.105-.185-.104-.185-.103-.184-.1-.183-.099-.183-.098-.182-.096-.183-.094-.181-.092-.181-.091-.18-.09-.181-.088-.179-.086-.179-.085-.178-.083-.178-.082-.178-.08-.176-.078-.177-.078-.177-.075-.175-.075-.35-.144-.174-.07-.173-.068-.174-.067-.173-.066-.172-.064-.171-.062-.172-.062-.171-.06-.17-.058-.171-.058-.169-.056-.338-.108-.168-.052-.168-.05-.169-.05-.167-.048-.166-.047-.166-.045-.167-.045-.166-.043-.165-.042-.164-.04-.165-.04-.164-.038-.165-.037-.163-.036-.163-.034-.164-.034-.163-.032-.161-.031-.163-.03-.161-.029-.162-.028-.323-.052-.16-.024-.161-.023-.161-.022-.159-.021-.16-.02-.32-.036-.158-.017-.16-.015-.318-.028-.159-.012-.157-.011-.159-.01-.159-.009-.157-.008-.158-.007-.158-.006-.158-.005-.158-.004-.158-.003-.157-.002h-.315l-.157.001-.315.006-.157.004-.315.012-.315.016-.314.02-.314.024-.315.028-.316.032-.157.018-.157.019-.158.019-.158.021-.158.022-.159.022-.157.024-.158.025-.159.026-.158.026-.158.028-.159.029-.159.03-.159.031-.159.032-.159.033-.159.034-.16.035-.159.036-.16.037-.16.038-.321.08-.159.041-.322.086-.161.044-.162.046-.16.046-.161.048-.162.049-.324.1-.161.052-.163.053-.163.054-.162.055-.326.114-.163.058-.163.06-.164.06-.164.062-.163.063-.164.063-.164.065-.165.066-.165.067-.165.068-.33.14-.165.071-.165.073-.332.148-.166.076-.166.077-.166.078-.167.079-.166.08-.334.164-.167.084-.168.085-.167.085-.167.087-.168.088-.168.089-.168.09-.336.184-.336.188-.17.096-.168.097-.169.098-.169.099-.169.1-.338.204-.169.103-.17.105-.17.106-.169.107-.17.108-.17.109-.17.11-.169.111-.171.113-.17.113-.17.115-.17.116-.171.117-.169.117-.171.119-.171.12-.17.121-.171.123-.341.247-.17.126-.342.254-.341.259-.171.131-.17.131-.342.268-.17.134-.171.137-.342.276-.341.279-.171.142-.34.286-.171.145-.341.293-.17.147-.171.149-.17.15-.169.151-.171.152-.17.152-.169.154-.171.156-.169.155-.17.158-.17.157-.339.319-.169.161-.17.163-.168.162-.17.165-.169.165-.168.165-.169.167-.168.168-.337.339-.336.342-.168.173-.167.174-.168.174-.168.176-.334.354-.167.178-.166.179-.334.362-.166.182-.166.183-.166.184-.166.185-.496.56-.164.188-.33.38-.164.191-.164.192-.164.193-.163.193-.164.195-.163.195-.326.394-.163.198-.162.199-.324.4-.323.403-.161.204-.161.203-.321.411-.16.206-.16.207-.318.416-.159.21-.159.211-.158.21-.158.212-.159.213-.157.214-.157.213-.157.215-.157.216-.157.217-.156.217-.155.217-.156.219-.31.44-.155.221-.154.221-.308.446-.153.223-.306.45-.304.452-.151.227-.152.229-.302.458-.15.229-.15.231-.149.231-.299.465-.148.234-.148.233-.296.47-.147.236-.293.473-.146.238-.145.239-.145.238-.29.48-.288.482-.286.484-.143.244-.142.243-.141.245-.142.244-.422.738-.278.495-.278.496-.138.25-.138.249-.137.251-.137.25-.272.503-.136.253-.135.253-.403.761-.266.51-.132.255-.132.257-.132.256-.131.257-.131.258-.26.516-.258.518-.384.781-.254.522-.126.262-.125.262-.126.263-.124.263-.125.264-.247.528-.122.264-.123.265-.122.266-.121.265-.121.266-.12.266-.12.267-.357.803-.117.268-.118.268-.117.269-.116.269-.232.54-.114.269-.228.541-.114.272-.225.542-.112.272-.222.544-.22.546-.109.272-.108.274-.108.273-.108.274-.214.549-.105.274-.106.275-.105.275-.208.551-.206.551-.204.552-.101.277-.3.83-.098.277-.099.277-.291.833-.192.556-.094.278-.095.278-.094.279-.186.557-.092.279-.182.557-.18.559-.178.558-.088.28-.174.559-.172.559-.085.28-.084.28-.084.279-.083.28-.083.281-.082.279-.243.841-.237.84-.078.28-.077.28-.228.84-.074.28-.075.281-.073.279-.073.28-.072.279-.072.281-.142.56-.207.838-.068.28-.134.558-.066.28-.13.557-.128.559-.063.278-.062.279-.183.835-.177.834-.171.832-.056.277-.055.277-.108.554-.106.552-.051.276-.052.276-.1.551-.098.55-.048.276-.047.274-.092.548-.09.547-.044.274-.043.273-.125.817-.041.272-.04.272-.039.272-.076.541-.037.271-.037.27-.036.27-.035.27-.068.538-.033.268-.032.268-.032.269-.031.267-.06.534-.029.267-.056.531-.026.265-.027.266-.05.529-.048.526-.066.788-.06.784-.036.52-.034.518-.015.26-.03.514-.039.771-.022.511-.02.509-.009.254-.008.252-.007.253-.007.252-.006.251-.01.502-.004.249-.003.25-.004.497-.001.247v.494l.001.246.004.49.003.244.004.243.01.485.012.484.024.718.02.476.022.474.013.235.012.236.028.467.015.233.032.464.017.231.018.23.038.458.04.455.021.227.022.226.023.224.023.225.024.223.024.222.078.663.084.657.09.649.096.641.034.213.034.211.034.209.072.42.036.208.038.207.076.411.039.204.04.203.041.203.041.202.042.201.042.199.043.199.044.199.044.197.045.196.092.389.047.194.047.192.048.192.098.38.05.189.05.187.051.188.052.185.052.184.053.185.054.183.053.181.055.181.055.18.056.179.056.178.114.352.059.175.058.174.059.173.06.172.06.17.061.17.061.169.062.168.062.166.063.166.128.328.064.162.065.162.132.32.066.158.067.157.136.312.068.153.069.153.07.153.07.15.07.151.071.149.071.147.144.292.073.145.147.286.074.142.075.14.075.139.151.276.076.136.077.135.078.134.077.133.078.132.078.131.079.129.08.13.079.127.08.127.081.126.081.125.081.123.082.123.082.122.082.12.083.12.083.118.084.117.084.118.17.23.085.114.172.224.086.11.086.109.088.11.088.108.087.106.088.106.09.105.089.105.089.103.09.102.09.101.092.101.091.099.091.098.092.098.093.097.092.096.093.095.094.094.094.093.095.093.19.182.096.09.096.089.194.176.196.172.098.085.1.084.1.085.1.082.101.082.101.081.101.08.103.08.103.079.103.078.104.078.105.077.105.076.105.074.107.075.108.074.107.073.108.073.218.142.111.071.111.07.111.068.113.069.113.067.114.067.114.066.116.066.117.065.116.064.118.064.119.063.119.062.12.062.121.061.122.06.123.06.124.059.25.116.126.057.127.056.129.055.13.056.13.054.131.053.133.054.133.052.27.102.137.051.138.049.139.049.139.048.141.047.143.047.143.046.144.045.146.045.147.043.148.044.149.042.151.041.152.041.153.04.154.039.156.039.156.037.158.037.16.036.16.035.162.035.164.034.33.064.168.031.169.03.17.029.172.029.173.027.174.027.352.05.179.024.362.044.183.021.185.02.185.019.188.018.189.017.191.016.384.028.195.013.197.012.397.02.201.008.407.014.205.005.208.004.209.003.421.002.213-.001.216-.002.217-.003.217-.004.22-.006.444-.014.451-.02.227-.012.229-.013.231-.014.233-.016.234-.017.235-.018.237-.02.239-.021.24-.022.242-.024.244-.025.246-.026.246-.028.248-.029.251-.031.251-.032.254-.033.284-.039.873-.088.878-.025.877.037.872.1.863.161.849.223.831.283.809.342.783.398.752.453.717.506.68.555.639.603.593.647.547.687.495.724.443.759.388.787.33.814.272.835.211.852.15.865.088.873.026.878-.038.877-.099.872-.162.863-.223.849-.283.831-.342.809-.398.783-.453.752-.506.717-.555.68-.603.639-.646.594-.688.546-.724.496-.758.442-.788.388-.813.331-.835.271-.852.211-.866.15-.34.047-.368.049-.368.047-.733.088-.367.041-.364.039-.364.037-.363.036-.362.034-.362.031-.36.03-.361.028-.359.026-.358.024-.358.022-.357.021-.356.018-.356.017-.354.014-.354.013-.353.011-.352.008-.353.007-.35.005-.349.003-.35.002-.349-.001-.347-.003-.347-.005-.346-.006-.345-.009-.345-.01-.343-.013-.343-.014-.343-.017-.341-.018-.34-.02-.34-.022-.339-.024-.339-.027-.337-.028-.336-.03-.336-.032-.336-.034-.333-.036-.333-.038-.333-.04-.331-.042-.331-.044-.33-.046-.329-.048-.329-.05-.327-.052-.327-.054-.325-.055-.324-.058-.324-.06-.324-.062-.322-.064-.32-.066-.321-.068-.32-.07-.317-.072-.318-.074-.317-.076-.315-.078-.315-.08-.314-.082-.312-.084-.311-.085-.311-.088-.309-.09-.309-.092-.307-.094-.307-.096-.306-.098-.304-.1-.303-.102-.303-.104-.301-.106-.3-.108-.299-.11-.298-.112-.296-.114-.296-.115-.294-.118-.294-.12-.292-.122-.29-.123-.29-.125-.288-.128-.288-.129-.286-.132-.284-.133-.284-.135-.283-.137-.28-.139-.28-.141-.278-.143-.277-.144-.276-.146-.274-.149-.274-.15-.271-.152-.27-.153-.269-.156-.268-.158-.267-.159-.264-.161-.264-.163-.262-.164-.26-.166-.26-.168-.257-.17-.256-.171-.256-.173-.252-.175-.252-.176-.251-.179-.249-.18-.247-.181-.246-.183-.244-.185-.243-.186-.24-.187-.241-.19-.238-.191-.236-.193-.236-.194-.233-.195-.231-.197-.231-.199-.229-.2-.227-.201-.226-.203-.224-.204-.223-.207-.22-.206-.219-.209-.218-.21-.216-.211-.214-.213-.213-.214-.211-.215-.21-.217-.208-.218-.206-.218-.205-.221-.203-.222-.201-.222-.201-.225-.198-.225-.197-.226-.194-.228-.193-.228-.192-.23-.191-.232-.189-.232-.186-.233-.186-.234-.184-.236-.182-.237-.181-.237-.179-.239-.177-.239-.176-.241-.174-.241-.172-.243-.172-.244-.169-.244-.168-.246-.167-.246-.164-.248-.164-.249-.161-.249-.16-.249-.159-.251-.157-.253-.155-.252-.154-.254-.153-.255-.151-.255-.149-.256-.148-.257-.147-.257-.145-.259-.143-.26-.142-.259-.14-.261-.14-.262-.137-.262-.136-.264-.135-.264-.133-.264-.131-.265-.131-.266-.129-.267-.253-.535-.125-.269-.123-.27-.122-.27-.12-.271-.119-.271-.118-.272-.116-.273-.115-.273-.113-.274-.112-.275-.111-.275-.109-.275-.108-.277-.107-.277-.106-.278-.104-.278-.103-.279-.101-.279-.1-.279-.099-.281-.098-.281-.096-.281-.095-.282-.094-.283-.184-.567-.09-.284-.176-.57-.086-.285-.085-.288-.084-.286-.082-.286-.082-.289-.08-.289-.079-.288-.154-.579-.075-.289-.075-.292-.072-.29-.072-.292-.071-.292-.069-.292-.069-.294-.067-.293-.066-.294-.065-.294-.064-.295-.124-.59-.06-.296-.059-.296-.059-.298-.057-.297-.056-.297-.054-.299-.054-.298-.053-.299-.102-.598-.098-.602-.047-.3-.046-.301-.045-.302-.045-.303-.043-.302-.042-.302-.041-.304-.04-.304-.038-.303-.038-.304-.037-.305-.036-.305-.035-.305-.034-.307-.064-.611-.031-.308-.03-.307-.056-.615-.027-.308-.026-.308-.025-.309-.024-.309-.044-.619-.021-.31-.02-.311-.019-.311-.018-.311-.017-.311-.032-.624-.014-.312-.026-.625-.022-.627-.018-.628-.014-.629-.006-.314-.005-.315-.004-.317-.003-.315-.004-.632v-.633l.002-.318.002-.317.003-.317.004-.317.005-.319.006-.319.014-.637.018-.637.01-.321.011-.319.012-.32.013-.32.028-.641.032-.642.017-.321.018-.322.038-.643.042-.644.022-.323.023-.323.024-.322.05-.646.054-.648.028-.323.058-.648.031-.324.031-.325.032-.324.033-.324.068-.651.035-.325.036-.325.037-.326.038-.326.039-.325.039-.326.04-.326.041-.327.042-.325.042-.327.043-.326.044-.327.045-.327.092-.654.048-.327.047-.326.049-.328.05-.328.05-.327.051-.327.052-.328.053-.328.053-.327.054-.328.055-.328.112-.657.057-.328.058-.328.118-.657.061-.328.06-.329.124-.656.192-.987.132-.657.134-.658.138-.658.14-.658.071-.328.072-.329.073-.329.148-.658.075-.329.075-.328.231-.987.158-.658.08-.329.162-.657.082-.329.083-.329.083-.328.084-.328.085-.329.172-.657.087-.328.176-.657.089-.327.18-.657.091-.328.184-.655.094-.328.188-.654.095-.328.096-.328.194-.653.098-.327.198-.654.1-.327.202-.652.102-.326.103-.327.103-.325.104-.326.21-.651.106-.326.214-.65.216-.649.33-.973.223-.648.113-.323.113-.324.114-.323.23-.647.116-.322.116-.323.117-.322.118-.322.118-.321.119-.322.12-.321.12-.322.121-.321.244-.641.123-.32.372-.959.378-.957.256-.637.128-.318.259-.635.131-.317.263-.634.264-.631.268-.632.135-.315.135-.314.136-.315.274-.628.276-.626.14-.314.139-.312.14-.312.141-.312.142-.311.142-.312.286-.621.288-.62.146-.309.145-.309.147-.309.442-.924.298-.614.15-.306.302-.612.304-.61.306-.608.155-.304.154-.303.155-.303.156-.302.314-.603.158-.302.316-.6.16-.3.32-.598.161-.298.162-.298.326-.595.163-.296.164-.296.33-.591.332-.589.167-.294.167-.292.169-.293.168-.293.169-.291.171-.291.17-.291.171-.29.344-.579.346-.577.173-.287.35-.574.175-.285.177-.286.177-.285.177-.284.178-.284.178-.283.179-.283.541-.844.181-.28.182-.28.549-.836.184-.277.185-.277.185-.276.186-.276.373-.549.376-.547.378-.544.38-.542.191-.27.384-.538.386-.536.388-.532.195-.266.196-.265.195-.263.197-.264.198-.263.197-.262.198-.261.399-.521.2-.259.201-.259.403-.515.202-.256.203-.256.203-.255.614-.761.206-.252.207-.251.206-.251.208-.25.208-.249.208-.248.21-.248.21-.247.21-.246.211-.245.423-.488.213-.243.213-.242.214-.242.215-.241.215-.239.432-.478.216-.237.218-.237.217-.235.219-.235.219-.234.22-.234.22-.232.442-.462.222-.23.223-.229.223-.228.224-.228.224-.226.225-.226.226-.225.453-.447.227-.221.228-.221.229-.221.228-.219.46-.436.231-.217.464-.43.233-.214.467-.425.235-.211.471-.419.236-.208.237-.207.238-.207.238-.205.239-.203.239-.204.482-.404.241-.2.241-.199.243-.198.244-.198.243-.195.244-.195.246-.195.246-.193.246-.192.247-.191.248-.19.248-.188.249-.188.25-.187.25-.185.251-.185.251-.183.252-.183.253-.181.253-.18.254-.179.511-.355.256-.175.256-.174.258-.174.257-.172.518-.34.261-.169.26-.167.523-.332.263-.163.262-.163.264-.161.265-.16.265-.159.266-.158.266-.156.268-.155.268-.154.268-.152.269-.152.27-.15.542-.296.271-.146.546-.288.274-.142.275-.141.274-.139.277-.138.276-.136.277-.136.557-.266.279-.131.279-.129.282-.129.28-.126.281-.125.284-.124.283-.123.283-.12.285-.12.285-.118.286-.116.286-.115.287-.113.288-.112.289-.111.289-.108.289-.107.291-.106.29-.104.292-.103.292-.1.293-.1.293-.097.294-.096.295-.095.591-.184.297-.089.297-.088.298-.086.298-.084.299-.083.3-.081.299-.079.302-.077.301-.076.301-.074.303-.072.303-.071.303-.068.304-.067.304-.065.306-.063.306-.062.306-.059.306-.058.308-.056.308-.054.308-.052.308-.05.31-.049.31-.046.309-.045.31-.042.311-.041.312-.039.312-.037.313-.035.313-.033.312-.031.313-.029.315-.027.314-.025.315-.023.315-.021.316-.019.315-.017.316-.015.317-.013.316-.011.317-.009.318-.006.317-.005.318-.003h.318l.319.001z"/></g></g></svg>